<svg xmlns="http://www.w3.org/2000/svg" viewBox="0 0 208.69 358.01"><path d="M34.12 198.5q-23.05 30.13-23 65.13 0 41.66 35 64.7 20.37 13.73 46.3 13.73 25.93 0 45-10.2 35.9-18.6 40.32-62.47a44.48 44.48 0 0 0 .45-6.2q0-16.4-9.1-35.45-9.1-19.06-29.46-35l-79.76-62.92Q33.64 109.45 33.64 77.1q0-32.35 20.83-54.72Q75.3 0 110.74 0a186.46 186.46 0 0 1 38.55 4.43h17.75l.9 54.5h-4.44q-.44-21.27-15.28-33.45Q133.37 13.3 111 13.3q-22.38 0-37.44 14.85Q58.5 43 58.5 66.2q0 23.26 19.5 38.77l82 64.7q48.74 38.55 48.74 93 0 40.77-32.35 70-27.92 25.26-74.43 25.26-28.36 0-50.5-10.64-41.65-19.5-50.07-66.46a99.61 99.61 0 0 1-1.33-17.94q0-10.86 6.2-29.7 6.2-18.83 23.93-37.88z"/></svg>